<!DOCTYPE svg PUBLIC "-//W3C//DTD SVG 1.1//EN" "http://www.w3.org/Graphics/SVG/1.1/DTD/svg11.dtd">
<!-- Uploaded to: SVG Repo, www.svgrepo.com, Transformed by: SVG Repo Mixer Tools -->
<svg height="800px" width="800px" version="1.1" id="Layer_1" xmlns="http://www.w3.org/2000/svg" xmlns:xlink="http://www.w3.org/1999/xlink" viewBox="0 0 511.998 511.998" xml:space="preserve" fill="#000000">
<g id="SVGRepo_bgCarrier" stroke-width="0"/>
<g id="SVGRepo_tracerCarrier" stroke-linecap="round" stroke-linejoin="round"/>
<g id="SVGRepo_iconCarrier"> <g> <path style="fill:#00a8e8;" d="M459.901,50.125h-59.404h-96.332h-96.331h-96.332H52.099c-20.394,0-36.927,16.533-36.927,36.927 v101.28c0,26.601,21.564,48.166,48.166,48.166l0,0c26.601,0,48.166-21.564,48.166-48.166c0,26.601,21.564,48.166,48.166,48.166l0,0 c26.601,0,48.166-21.564,48.166-48.166c0,26.601,21.565,48.166,48.166,48.166l0,0c26.601,0,48.166-21.564,48.166-48.166 c0,26.601,21.565,48.166,48.166,48.166l0,0c26.601,0,48.166-21.564,48.166-48.166c0,26.601,21.565,48.166,48.166,48.166l0,0 c26.601,0,48.166-21.564,48.166-48.166v-26.232v-43.771V87.052C496.828,66.658,480.295,50.125,459.901,50.125z"/> </g> <g> <path style="fill:#2D527C;" d="M459.901,34.953H52.099C23.371,34.953,0,58.324,0,87.052v101.281 c0,23.048,12.38,43.255,30.835,54.335v219.206c0,8.378,6.794,15.172,15.172,15.172h419.984c8.378,0,15.172-6.794,15.172-15.172 V308.768c0-8.378-6.794-15.172-15.172-15.172s-15.172,6.794-15.172,15.172v137.935H61.179V251.615 c0.718,0.024,1.435,0.055,2.159,0.055c19.258,0,36.538-8.642,48.165-22.25c11.626,13.608,28.907,22.25,48.166,22.25 c19.258,0,36.538-8.642,48.165-22.25c11.626,13.608,28.907,22.25,48.166,22.25s36.54-8.642,48.166-22.25 c11.626,13.608,28.907,22.25,48.165,22.25c19.259,0,36.54-8.642,48.166-22.25c11.626,13.608,28.907,22.25,48.165,22.25 c34.926,0,63.338-28.414,63.338-63.336V87.052C512,58.324,488.629,34.953,459.901,34.953z M481.656,188.333 c0,18.193-14.802,32.993-32.994,32.993s-32.993-14.8-32.993-32.993v-44.088c0-8.378-6.794-15.172-15.172-15.172 s-15.172,6.794-15.172,15.172v44.088c0,18.193-14.802,32.993-32.994,32.993c-18.193,0-32.993-14.8-32.993-32.993v-72.992 c0-8.378-6.794-15.172-15.172-15.172s-15.172,6.794-15.172,15.172v72.99c0,18.193-14.802,32.993-32.994,32.993 s-32.994-14.8-32.994-32.993v-44.086c0-8.378-6.794-15.172-15.172-15.172s-15.172,6.794-15.172,15.172v44.088 c0,18.193-14.8,32.993-32.993,32.993s-32.994-14.8-32.994-32.993v-72.992c0-8.378-6.794-15.172-15.172-15.172 s-15.172,6.794-15.172,15.172v72.99c0,18.193-14.8,32.993-32.993,32.993s-32.996-14.799-32.996-32.991V87.052 c0-11.995,9.76-21.755,21.755-21.755h407.803c11.995,0,21.755,9.76,21.755,21.755L481.656,188.333L481.656,188.333z"/> <path style="fill:#2D527C;" d="M184.78,367.481h-30.97c0.402-3.527,5.993-7.357,12.43-11.763 c11.535-7.895,25.889-17.722,25.889-34.865c0-17.669-15.679-27.203-30.43-27.203c-14.33,0-29.561,8.882-29.561,25.342 c0,7.675,3.433,11.567,10.205,11.567c7.594,0,11.691-4.426,11.691-8.589c0-6.437,4.236-7.789,7.791-7.789 c5.84,0,7.912,3.928,7.912,7.293c0,6.694-8.44,12.887-17.373,19.444c-10.675,7.836-21.714,15.938-21.714,26.962v12.037 c0,4.63,5.797,7.474,9.956,7.474h44.174c3.916,0,7.351-4.709,7.351-10.08C192.129,371.982,188.764,367.481,184.78,367.481z"/> <path style="fill:#2D527C;" d="M250.914,347.378h-3.819v-7.169c0-4.464-4.394-7.349-11.197-7.349c-6.8,0-11.195,2.884-11.195,7.349 v7.169H218l20.905-41.937c0.387-0.901,0.743-1.883,0.743-2.954c0-5.72-7.396-8.838-11.197-8.838c-4.14,0-7.484,2.054-9.416,5.791 l-28.646,56.174c-1.026,1.88-1.177,3.593-1.177,4.448c0,4.914,3.203,8.217,7.97,8.217h27.52v11.637 c0,5.136,5.803,7.474,11.195,7.474c5.394,0,11.197-2.338,11.197-7.474V368.28h3.819c3.842,0,7.474-5.08,7.474-10.452 C258.387,352.796,256.049,347.378,250.914,347.378z"/> <path style="fill:#2D527C;" d="M307.99,288.561c-2.996,0-5.397,1.449-6.575,3.955l-43.546,89.449 c-0.504,1.006-0.781,2.086-0.781,3.039c0,3.908,3.402,8.093,8.466,8.093c3.003,0,5.864-1.634,6.947-3.952l43.672-89.455 c0.54-1.083,0.655-2.247,0.655-3.034C316.829,291.814,312.259,288.561,307.99,288.561z"/> <path style="fill:#2D527C;" d="M371.395,293.65h-44.05c-5.117,0-9.956,3.632-9.956,7.474v19.233c0,4.19,4.864,7.474,11.072,7.474 c6.242,0,11.32-3.353,11.32-7.474v-6.795h19.177v6.762l-30.333,52.53c-0.724,1.3-1.061,2.561-1.061,3.963 c0,6.67,7.275,11.32,13.803,11.32c3.306,0,5.592-1.147,6.805-3.42l29.03-55.579c1.247-2.34,4.148-8.243,4.148-12.502v-15.512 C381.351,297.168,375.784,293.65,371.395,293.65z"/> </g> </g>
</svg>